M48
; DRILL file {KiCad 9.0.3} date 2025-07-21T12:14:54+1000
; FORMAT={-:-/ absolute / metric / decimal}
; #@! TF.CreationDate,2025-07-21T12:14:54+10:00
; #@! TF.GenerationSoftware,Kicad,Pcbnew,9.0.3
; #@! TF.FileFunction,Plated,1,2,PTH
FMAT,2
METRIC
; #@! TA.AperFunction,Plated,PTH,ViaDrill
T1C0.300
; #@! TA.AperFunction,Plated,PTH,ComponentDrill
T2C1.000
; #@! TA.AperFunction,Plated,PTH,ComponentDrill
T3C2.200
%
G90
G05
T1
X122.5Y-121.0
X127.0Y-104.5
X132.5Y-111.0
X143.5Y-123.0
X149.486Y-60.014
X150.0Y-88.0
X151.0Y-60.5
X151.0Y-82.5
X151.0Y-90.0
X152.075Y-95.425
X152.5Y-61.0
X152.5Y-126.0
X159.5Y-88.0
X160.0Y-108.0
X160.0Y-143.0
X160.5Y-137.0
X161.5Y-68.5
X162.0Y-107.0
X162.5Y-72.0
X163.0Y-89.5
X165.239Y-110.776
X165.5Y-110.0
T2
X145.894Y-92.69
X148.434Y-92.69
X150.974Y-92.69
T3
X126.5Y-82.5
X166.0Y-83.5
T2
G00X143.475Y-136.2
M15
G01X146.075Y-136.2
M16
G05
G00X143.675Y-142.5
M15
G01X145.875Y-142.5
M16
G05
G00X149.575Y-138.0
M15
G01X149.575Y-140.2
M16
G05
M30
