%TF.GenerationSoftware,KiCad,Pcbnew,9.0.3*%
%TF.CreationDate,2025-07-21T12:15:01+10:00*%
%TF.ProjectId,light_control_sched,6c696768-745f-4636-9f6e-74726f6c5f73,rev?*%
%TF.SameCoordinates,Original*%
%TF.FileFunction,Soldermask,Top*%
%TF.FilePolarity,Negative*%
%FSLAX46Y46*%
G04 Gerber Fmt 4.6, Leading zero omitted, Abs format (unit mm)*
G04 Created by KiCad (PCBNEW 9.0.3) date 2025-07-21 12:15:01*
%MOMM*%
%LPD*%
G01*
G04 APERTURE LIST*
G04 Aperture macros list*
%AMRoundRect*
0 Rectangle with rounded corners*
0 $1 Rounding radius*
0 $2 $3 $4 $5 $6 $7 $8 $9 X,Y pos of 4 corners*
0 Add a 4 corners polygon primitive as box body*
4,1,4,$2,$3,$4,$5,$6,$7,$8,$9,$2,$3,0*
0 Add four circle primitives for the rounded corners*
1,1,$1+$1,$2,$3*
1,1,$1+$1,$4,$5*
1,1,$1+$1,$6,$7*
1,1,$1+$1,$8,$9*
0 Add four rect primitives between the rounded corners*
20,1,$1+$1,$2,$3,$4,$5,0*
20,1,$1+$1,$4,$5,$6,$7,0*
20,1,$1+$1,$6,$7,$8,$9,0*
20,1,$1+$1,$8,$9,$2,$3,0*%
%AMFreePoly0*
4,1,37,0.800000,0.796148,0.878414,0.796148,1.032228,0.765552,1.177117,0.705537,1.307515,0.618408,1.418408,0.507515,1.505537,0.377117,1.565552,0.232228,1.596148,0.078414,1.596148,-0.078414,1.565552,-0.232228,1.505537,-0.377117,1.418408,-0.507515,1.307515,-0.618408,1.177117,-0.705537,1.032228,-0.765552,0.878414,-0.796148,0.800000,-0.796148,0.800000,-0.800000,-1.400000,-0.800000,
-1.403843,-0.796157,-1.439018,-0.796157,-1.511114,-0.766294,-1.566294,-0.711114,-1.596157,-0.639018,-1.596157,-0.603843,-1.600000,-0.600000,-1.600000,0.600000,-1.596157,0.603843,-1.596157,0.639018,-1.566294,0.711114,-1.511114,0.766294,-1.439018,0.796157,-1.403843,0.796157,-1.400000,0.800000,0.800000,0.800000,0.800000,0.796148,0.800000,0.796148,$1*%
%AMFreePoly1*
4,1,37,1.403843,0.796157,1.439018,0.796157,1.511114,0.766294,1.566294,0.711114,1.596157,0.639018,1.596157,0.603843,1.600000,0.600000,1.600000,-0.600000,1.596157,-0.603843,1.596157,-0.639018,1.566294,-0.711114,1.511114,-0.766294,1.439018,-0.796157,1.403843,-0.796157,1.400000,-0.800000,-0.800000,-0.800000,-0.800000,-0.796148,-0.878414,-0.796148,-1.032228,-0.765552,-1.177117,-0.705537,
-1.307515,-0.618408,-1.418408,-0.507515,-1.505537,-0.377117,-1.565552,-0.232228,-1.596148,-0.078414,-1.596148,0.078414,-1.565552,0.232228,-1.505537,0.377117,-1.418408,0.507515,-1.307515,0.618408,-1.177117,0.705537,-1.032228,0.765552,-0.878414,0.796148,-0.800000,0.796148,-0.800000,0.800000,1.400000,0.800000,1.403843,0.796157,1.403843,0.796157,$1*%
G04 Aperture macros list end*
%ADD10RoundRect,0.237500X-0.237500X0.250000X-0.237500X-0.250000X0.237500X-0.250000X0.237500X0.250000X0*%
%ADD11RoundRect,0.237500X0.250000X0.237500X-0.250000X0.237500X-0.250000X-0.237500X0.250000X-0.237500X0*%
%ADD12C,1.500000*%
%ADD13RoundRect,0.147500X0.172500X-0.147500X0.172500X0.147500X-0.172500X0.147500X-0.172500X-0.147500X0*%
%ADD14RoundRect,0.375000X0.375000X-0.625000X0.375000X0.625000X-0.375000X0.625000X-0.375000X-0.625000X0*%
%ADD15RoundRect,0.500000X1.400000X-0.500000X1.400000X0.500000X-1.400000X0.500000X-1.400000X-0.500000X0*%
%ADD16R,1.700000X1.000000*%
%ADD17C,3.800000*%
%ADD18RoundRect,0.250000X-0.475000X0.250000X-0.475000X-0.250000X0.475000X-0.250000X0.475000X0.250000X0*%
%ADD19C,2.200000*%
%ADD20C,1.850000*%
%ADD21FreePoly0,0.000000*%
%ADD22RoundRect,0.800000X-0.800000X-0.000010X0.800000X-0.000010X0.800000X0.000010X-0.800000X0.000010X0*%
%ADD23FreePoly1,0.000000*%
%ADD24RoundRect,0.200000X-0.600000X-0.600000X0.600000X-0.600000X0.600000X0.600000X-0.600000X0.600000X0*%
%ADD25C,1.600000*%
%ADD26RoundRect,0.243750X-0.456250X0.243750X-0.456250X-0.243750X0.456250X-0.243750X0.456250X0.243750X0*%
%ADD27RoundRect,0.237500X-0.250000X-0.237500X0.250000X-0.237500X0.250000X0.237500X-0.250000X0.237500X0*%
%ADD28RoundRect,0.237500X0.237500X-0.250000X0.237500X0.250000X-0.237500X0.250000X-0.237500X-0.250000X0*%
%ADD29RoundRect,0.350000X-0.650000X-0.350000X0.650000X-0.350000X0.650000X0.350000X-0.650000X0.350000X0*%
%ADD30RoundRect,0.250000X-0.750000X-0.250000X0.750000X-0.250000X0.750000X0.250000X-0.750000X0.250000X0*%
%ADD31R,4.600000X2.000000*%
%ADD32O,4.200000X2.000000*%
%ADD33O,2.000000X4.200000*%
%ADD34RoundRect,0.112500X0.112500X0.637500X-0.112500X0.637500X-0.112500X-0.637500X0.112500X-0.637500X0*%
%ADD35RoundRect,0.250000X-0.250000X-0.475000X0.250000X-0.475000X0.250000X0.475000X-0.250000X0.475000X0*%
G04 APERTURE END LIST*
D10*
%TO.C,R5*%
X158500000Y-84175000D03*
X158500000Y-86000000D03*
%TD*%
D11*
%TO.C,R7*%
X158500000Y-139000000D03*
X156675000Y-139000000D03*
%TD*%
%TO.C,R1*%
X129500000Y-66000000D03*
X127675000Y-66000000D03*
%TD*%
D12*
%TO.C,TP3*%
X135000000Y-129000000D03*
%TD*%
D13*
%TO.C,F1*%
X137985000Y-136485000D03*
X137985000Y-135515000D03*
%TD*%
D10*
%TO.C,R8*%
X163912500Y-45483391D03*
X163912500Y-47308391D03*
%TD*%
D14*
%TO.C,U1*%
X128300000Y-141650000D03*
D15*
X126000000Y-135350000D03*
D14*
X126000000Y-141650000D03*
X123700000Y-141650000D03*
%TD*%
D16*
%TO.C,SW3*%
X165150000Y-129000000D03*
X158850000Y-129000000D03*
X165150000Y-125200000D03*
X158850000Y-125200000D03*
%TD*%
D12*
%TO.C,TP2*%
X151500000Y-129000000D03*
%TD*%
D17*
%TO.C,H1*%
X166000000Y-83500000D03*
%TD*%
D18*
%TO.C,C1*%
X159000000Y-104600000D03*
X159000000Y-106500000D03*
%TD*%
%TO.C,C4*%
X158500000Y-71100000D03*
X158500000Y-73000000D03*
%TD*%
D10*
%TO.C,R4*%
X122500000Y-129325000D03*
X122500000Y-127500000D03*
%TD*%
D19*
%TO.C,A1*%
X142585000Y-62990000D03*
D20*
X142885000Y-66020000D03*
X147735000Y-66020000D03*
D19*
X148035000Y-62990000D03*
D21*
X135620000Y-62860000D03*
D22*
X135620000Y-65400000D03*
D23*
X135620000Y-67940000D03*
D22*
X135620000Y-70480000D03*
X135620000Y-73020000D03*
X135620000Y-75560000D03*
X135620000Y-78100000D03*
D23*
X135620000Y-80640000D03*
D22*
X135620000Y-83180000D03*
X135620000Y-85720000D03*
X135620000Y-88260000D03*
X135620000Y-90800000D03*
D23*
X135620000Y-93340000D03*
D22*
X135620000Y-95880000D03*
X135620000Y-98420000D03*
X135620000Y-100960000D03*
X135620000Y-103500000D03*
D23*
X135620000Y-106040000D03*
D22*
X135620000Y-108580000D03*
X135620000Y-111120000D03*
X155000000Y-111120000D03*
X155000000Y-108580000D03*
D21*
X155000000Y-106040000D03*
D22*
X155000000Y-103500000D03*
X155000000Y-100960000D03*
X155000000Y-98420000D03*
X155000000Y-95880000D03*
D21*
X155000000Y-93340000D03*
D22*
X155000000Y-90800000D03*
X155000000Y-88260000D03*
X155000000Y-85720000D03*
X155000000Y-83180000D03*
D21*
X155000000Y-80640000D03*
D22*
X155000000Y-78100000D03*
X155000000Y-75560000D03*
X155000000Y-73020000D03*
X155000000Y-70480000D03*
D21*
X155000000Y-67940000D03*
D22*
X155000000Y-65400000D03*
X155000000Y-62860000D03*
D24*
X145894100Y-92690000D03*
D25*
X148434100Y-92690000D03*
X150974100Y-92690000D03*
%TD*%
D26*
%TO.C,D2*%
X153500000Y-135562500D03*
X153500000Y-137437500D03*
%TD*%
D10*
%TO.C,R6*%
X161997723Y-45472930D03*
X161997723Y-47297930D03*
%TD*%
D27*
%TO.C,R10*%
X165175000Y-90000000D03*
X167000000Y-90000000D03*
%TD*%
D12*
%TO.C,TP1*%
X168000000Y-129000000D03*
%TD*%
D28*
%TO.C,R2*%
X139000000Y-129412500D03*
X139000000Y-127587500D03*
%TD*%
D29*
%TO.C,D3*%
X161600000Y-34900000D03*
D30*
X161600000Y-36700000D03*
D29*
X161600000Y-38500000D03*
X166000000Y-38500000D03*
D30*
X166000000Y-36700000D03*
D29*
X166000000Y-34900000D03*
%TD*%
D27*
%TO.C,R11*%
X159087500Y-110000000D03*
X160912500Y-110000000D03*
%TD*%
D16*
%TO.C,SW2*%
X142275000Y-125200000D03*
X148575000Y-125200000D03*
X142275000Y-129000000D03*
X148575000Y-129000000D03*
%TD*%
D10*
%TO.C,R3*%
X155500000Y-127500000D03*
X155500000Y-129325000D03*
%TD*%
D31*
%TO.C,J1*%
X144775000Y-136200000D03*
D32*
X144775000Y-142500000D03*
D33*
X149575000Y-139100000D03*
%TD*%
D16*
%TO.C,SW1*%
X132000000Y-129000000D03*
X125700000Y-129000000D03*
X132000000Y-125200000D03*
X125700000Y-125200000D03*
%TD*%
D17*
%TO.C,H2*%
X126500000Y-82500000D03*
%TD*%
D28*
%TO.C,R12*%
X131000000Y-109412500D03*
X131000000Y-107587500D03*
%TD*%
D34*
%TO.C,Q1*%
X161800000Y-73500000D03*
X160500000Y-73500000D03*
X161150000Y-76160000D03*
%TD*%
D10*
%TO.C,R9*%
X165840632Y-45500000D03*
X165840632Y-47325000D03*
%TD*%
D35*
%TO.C,C3*%
X130100000Y-103500000D03*
X132000000Y-103500000D03*
%TD*%
%TO.C,C2*%
X159100000Y-90500000D03*
X161000000Y-90500000D03*
%TD*%
M02*
